<svg width="50" height="50" viewBox="0 0 50 50" fill="none" xmlns="http://www.w3.org/2000/svg">
<path fill-rule="evenodd" clip-rule="evenodd" d="M24.8936 49.7872C38.642 49.7872 49.7872 38.642 49.7872 24.8936C49.7872 11.1453 38.642 0 24.8936 0C11.1453 0 0 11.1453 0 24.8936C0 38.642 11.1453 49.7872 24.8936 49.7872Z" fill="white"/>
<path fill-rule="evenodd" clip-rule="evenodd" d="M24.8937 47.9203C37.6109 47.9203 47.9203 37.6109 47.9203 24.8937C47.9203 12.1764 37.6109 1.86707 24.8937 1.86707C12.1764 1.86707 1.86707 12.1764 1.86707 24.8937C1.86707 37.6109 12.1764 47.9203 24.8937 47.9203Z" fill="#2F3CED"/>
<mask id="mask0" style="mask-type:alpha" maskUnits="userSpaceOnUse" x="1" y="1" width="47" height="47">
<path fill-rule="evenodd" clip-rule="evenodd" d="M24.8937 47.9203C37.6109 47.9203 47.9203 37.6109 47.9203 24.8937C47.9203 12.1764 37.6109 1.86707 24.8937 1.86707C12.1764 1.86707 1.86707 12.1764 1.86707 24.8937C1.86707 37.6109 12.1764 47.9203 24.8937 47.9203Z" fill="white"/>
</mask>
<g mask="url(#mask0)">
<path fill-rule="evenodd" clip-rule="evenodd" d="M24.6945 13.4675C20.075 13.4675 16.3302 17.2123 16.3302 21.8318V22.7527C15.4825 22.895 14.8366 23.6322 14.8366 24.5203V26.6114C14.8366 27.5153 15.5058 28.263 16.3758 28.386C16.6845 31.3442 18.5352 33.8438 21.1098 35.0669V37.8362C14.7759 38.2219 9.7583 43.4809 9.7583 49.9118H39.6306C39.6306 43.4809 34.613 38.2219 28.2792 37.8362V35.0669C30.8538 33.8438 32.7044 31.3442 33.0132 28.386C33.8832 28.263 34.5523 27.5153 34.5523 26.6114V24.5203C34.5523 23.6322 33.9064 22.895 33.0587 22.7527V21.8318C33.0587 17.2123 29.3139 13.4675 24.6945 13.4675Z" fill="#D0C6AC"/>
<mask id="mask1" style="mask-type:alpha" maskUnits="userSpaceOnUse" x="9" y="13" width="31" height="37">
<path fill-rule="evenodd" clip-rule="evenodd" d="M24.6945 13.4675C20.075 13.4675 16.3302 17.2123 16.3302 21.8318V22.7527C15.4825 22.895 14.8366 23.6322 14.8366 24.5203V26.6114C14.8366 27.5153 15.5058 28.263 16.3758 28.386C16.6845 31.3442 18.5352 33.8438 21.1098 35.0669V37.8362C14.7759 38.2219 9.7583 43.4809 9.7583 49.9118H39.6306C39.6306 43.4809 34.613 38.2219 28.2792 37.8362V35.0669C30.8538 33.8438 32.7044 31.3442 33.0132 28.386C33.8832 28.263 34.5523 27.5153 34.5523 26.6114V24.5203C34.5523 23.6322 33.9064 22.895 33.0587 22.7527V21.8318C33.0587 17.2123 29.3139 13.4675 24.6945 13.4675Z" fill="white"/>
</mask>
<g mask="url(#mask1)">
<rect x="5.60938" y="13.4675" width="42.6961" height="38.2793" fill="#D08B5B"/>
<path fill-rule="evenodd" clip-rule="evenodd" d="M16.3302 27.5076V28.7025C16.3302 33.3219 20.075 37.0667 24.6945 37.0667C29.3139 37.0667 33.0587 33.3219 33.0587 28.7025V27.5076C33.0587 32.127 29.3139 35.8718 24.6945 35.8718C20.075 35.8718 16.3302 32.127 16.3302 27.5076Z" fill="black" fill-opacity="0.1"/>
</g>
<path fill-rule="evenodd" clip-rule="evenodd" d="M28.7272 38.3938C28.7272 40.456 26.9217 42.1278 24.6945 42.1278C22.4672 42.1278 20.6617 40.456 20.6617 38.3938C20.6617 38.2611 20.6692 38.1301 20.6837 38.0011C14.5529 38.5873 9.7583 43.7519 9.7583 50.0363H39.6306C39.6306 43.7519 34.836 38.5873 28.7052 38.0011C28.7198 38.1301 28.7272 38.2611 28.7272 38.3938Z" fill="#E6E6E6"/>
<mask id="mask2" style="mask-type:alpha" maskUnits="userSpaceOnUse" x="9" y="38" width="31" height="13">
<path fill-rule="evenodd" clip-rule="evenodd" d="M28.7272 38.3938C28.7272 40.456 26.9217 42.1278 24.6945 42.1278C22.4672 42.1278 20.6617 40.456 20.6617 38.3938C20.6617 38.2611 20.6692 38.1301 20.6837 38.0011C14.5529 38.5873 9.7583 43.7519 9.7583 50.0363H39.6306C39.6306 43.7519 34.836 38.5873 28.7052 38.0011C28.7198 38.1301 28.7272 38.2611 28.7272 38.3938Z" fill="white"/>
</mask>
<g mask="url(#mask2)">
<rect x="4.97876" y="33.6064" width="39.0868" height="16.4298" fill="white"/>
</g>
<path fill-rule="evenodd" clip-rule="evenodd" d="M21.1098 36.8284C20.099 37.5158 19.4668 38.4965 19.4668 39.5851C19.4668 40.6901 20.1183 41.6839 21.1558 42.3727L22.0688 41.6535L22.7528 41.703L22.6034 41.2323L22.615 41.2232C21.7039 40.7538 21.1098 39.9842 21.1098 39.1144V36.8284ZM28.2791 39.1144C28.2791 39.9842 27.6851 40.7538 26.7739 41.2232L26.7855 41.2323L26.6362 41.703L27.3201 41.6535L28.164 42.3183C29.1548 41.6321 29.7728 40.6613 29.7728 39.5851C29.7728 38.5511 29.2024 37.6146 28.2791 36.9341V39.1144Z" fill="#28354B"/>
<path fill-rule="evenodd" clip-rule="evenodd" d="M22.3047 30.8765C22.3047 32.0313 23.2409 32.9675 24.3958 32.9675C25.5506 32.9675 26.4868 32.0313 26.4868 30.8765" fill="black" fill-opacity="0.7"/>
<path fill-rule="evenodd" clip-rule="evenodd" d="M22.869 27.0649C22.869 27.7249 23.6715 28.2598 24.6614 28.2598C25.6512 28.2598 26.4537 27.7249 26.4537 27.0649" fill="black" fill-opacity="0.16"/>
<path fill-rule="evenodd" clip-rule="evenodd" d="M20.8111 25.9032C21.306 25.9032 21.7073 25.502 21.7073 25.007C21.7073 24.5121 21.306 24.1108 20.8111 24.1108C20.3161 24.1108 19.9149 24.5121 19.9149 25.007C19.9149 25.502 20.3161 25.9032 20.8111 25.9032Z" fill="black" fill-opacity="0.6"/>
<path fill-rule="evenodd" clip-rule="evenodd" d="M28.5779 25.9032C29.0729 25.9032 29.4741 25.502 29.4741 25.007C29.4741 24.5121 29.0729 24.1108 28.5779 24.1108C28.083 24.1108 27.6818 24.5121 27.6818 25.007C27.6818 25.502 28.083 25.9032 28.5779 25.9032Z" fill="black" fill-opacity="0.6"/>
<path d="M18.6648 22.901C19.2495 22.0782 20.8526 21.6168 22.2335 21.9559C22.3937 21.9952 22.5555 21.8972 22.5948 21.737C22.6342 21.5768 22.5362 21.415 22.376 21.3757C20.7723 20.9819 18.916 21.5161 18.1778 22.5549C18.0822 22.6893 18.1138 22.8758 18.2483 22.9714C18.3827 23.067 18.5692 23.0354 18.6648 22.901Z" fill="black" fill-opacity="0.6"/>
<path d="M30.7242 22.901C30.1395 22.0782 28.5364 21.6168 27.1556 21.9559C26.9953 21.9952 26.8336 21.8972 26.7942 21.737C26.7549 21.5768 26.8529 21.415 27.0131 21.3757C28.6167 20.9819 30.473 21.5161 31.2112 22.5549C31.3068 22.6893 31.2753 22.8758 31.1408 22.9714C31.0063 23.067 30.8198 23.0354 30.7242 22.901Z" fill="black" fill-opacity="0.6"/>
<mask id="mask3" style="mask-type:alpha" maskUnits="userSpaceOnUse" x="4" y="8" width="41" height="42">
<rect x="4.97876" y="8.09045" width="39.4315" height="41.8213" fill="white"/>
</mask>
<g mask="url(#mask3)">
<path fill-rule="evenodd" clip-rule="evenodd" d="M32.4135 13.908C33.221 13.1686 33.4154 11.6694 32.9569 10.6968C32.394 9.50253 31.2517 9.35292 30.1571 9.87815C29.1253 10.3733 28.2068 10.5382 27.0769 10.2983C25.9928 10.0681 24.9642 9.66217 23.8437 9.59549C22.0028 9.48596 20.2142 10.1688 18.9595 11.5451C18.7201 11.8077 18.5273 12.1079 18.3449 12.4122C18.1991 12.6556 18.0346 12.9169 17.9725 13.1975C17.943 13.3309 17.998 13.6602 17.9315 13.7695C17.8596 13.8876 17.5886 13.9959 17.4731 14.0835C17.2391 14.261 17.0363 14.4614 16.8488 14.688C16.4506 15.1691 16.2314 15.6717 16.047 16.267C15.4342 18.2453 15.3823 20.5982 16.1745 22.5408C16.2801 22.7998 16.6074 23.3401 16.7998 22.7854C16.8378 22.6758 16.7498 22.3083 16.75 22.1977C16.7507 21.7915 16.975 19.1016 17.9519 17.5948C18.27 17.1043 19.7402 15.2677 20.0405 15.2529C20.1996 15.5058 21.8149 17.1213 26.0065 16.9319C27.8977 16.8465 29.3521 15.9968 29.7013 15.6285C29.8549 16.4549 31.6419 17.6921 31.9141 18.2011C32.7007 19.6717 32.8752 22.7273 33.1755 22.7216C33.4757 22.7158 33.6913 21.9393 33.753 21.791C34.2118 20.6894 34.2899 19.3068 34.241 18.1229C34.1772 16.5991 33.5482 14.9525 32.4135 13.908Z" fill="#28354B"/>
<g filter="url(#filter0_d)">
<path fill-rule="evenodd" clip-rule="evenodd" d="M20.0148 27.5684H20.4267C22.6255 27.5684 24.1607 26.3091 24.1607 24.5065C24.1607 22.9572 23.8893 21.4446 20.6462 21.4446H20.2071C16.964 21.4446 16.6926 22.9572 16.6926 24.5065C16.6926 26.4237 17.9345 27.5684 20.0148 27.5684ZM17.2901 24.6561C17.2901 23.3625 17.2901 22.3408 20.1855 22.3408H20.6678C23.5633 22.3408 23.5633 23.3625 23.5633 24.6561C23.5633 26.0191 22.2735 26.971 20.4267 26.971H19.9742C17.7555 26.971 17.2901 25.7121 17.2901 24.6561Z" fill="#252C2F"/>
<path fill-rule="evenodd" clip-rule="evenodd" d="M29.2753 27.5684H29.6872C31.886 27.5684 33.4212 26.3091 33.4212 24.5065C33.4212 22.9572 33.1498 21.4446 29.9067 21.4446H29.4676C26.2245 21.4446 25.9531 22.9572 25.9531 24.5065C25.9531 26.4237 27.195 27.5684 29.2753 27.5684ZM26.5506 24.6561C26.5506 23.3625 26.5506 22.3408 29.446 22.3408H29.9283C32.8238 22.3408 32.8238 23.3625 32.8238 24.6561C32.8238 26.0191 31.534 26.971 29.6872 26.971H29.2347C27.0165 26.971 26.5506 25.7121 26.5506 24.6561Z" fill="#252C2F"/>
<path d="M15.7897 22.3066C15.8929 22.2058 17.0227 21.4446 20.2026 21.4446C22.869 21.4446 23.4334 21.7213 24.2877 22.1394L24.3503 22.1703C24.4097 22.1912 24.7134 22.2944 25.0687 22.3058C25.3924 22.2919 25.6693 22.2041 25.7502 22.176C26.7253 21.7018 27.6799 21.4446 29.9112 21.4446C33.0911 21.4446 34.2208 22.2058 34.3241 22.3066C34.5681 22.3066 34.7654 22.4993 34.7654 22.7377V23.1687C34.7654 23.407 34.5681 23.5997 34.3241 23.5997C34.3241 23.5997 33.2933 23.5997 33.2933 24.0307C33.2933 24.4618 33.0002 23.407 33.0002 23.1687V22.7489C32.462 22.5429 31.4986 22.1595 29.9112 22.1595C28.1425 22.1595 27.2616 22.4731 26.5061 22.7845L26.5145 22.8049L26.5141 23.1016L26.183 23.9006L25.7739 23.7389C25.7374 23.7245 25.6585 23.6985 25.5492 23.6715C25.2445 23.5964 24.9313 23.5735 24.6542 23.6304C24.5526 23.6512 24.4583 23.6826 24.3717 23.7248L23.9771 23.9177L23.5822 23.1467L23.5997 22.804L23.6118 22.7749C22.9602 22.4713 22.3593 22.1595 20.2026 22.1595C18.6152 22.1595 17.6519 22.5428 17.1136 22.7487V23.1687C17.1136 23.407 16.6723 24.4618 16.6723 24.0307C16.6723 23.5997 15.7897 23.5997 15.7897 23.5997C15.5461 23.5997 15.3484 23.407 15.3484 23.1687V22.7377C15.3484 22.4993 15.5461 22.3066 15.7897 22.3066Z" fill="#252C2F"/>
</g>
</g>
</g>
<defs>
<filter id="filter0_d" x="15.3484" y="21.4446" width="19.417" height="6.12383" filterUnits="userSpaceOnUse" color-interpolation-filters="sRGB">
<feFlood flood-opacity="0" result="BackgroundImageFix"/>
<feColorMatrix in="SourceAlpha" type="matrix" values="0 0 0 0 0 0 0 0 0 0 0 0 0 0 0 0 0 0 127 0" result="hardAlpha"/>
<feOffset/>
<feColorMatrix type="matrix" values="0 0 0 0 0 0 0 0 0 0 0 0 0 0 0 0 0 0 0.2 0"/>
<feBlend mode="normal" in2="BackgroundImageFix" result="effect1_dropShadow"/>
<feBlend mode="normal" in="SourceGraphic" in2="effect1_dropShadow" result="shape"/>
</filter>
</defs>
</svg>
