<svg width="19" height="19" viewBox="0 0 19 19" fill="none" xmlns="http://www.w3.org/2000/svg">
<path fill-rule="evenodd" clip-rule="evenodd" d="M3.69992 5.31212C3.57285 5.43918 3.55216 5.63789 3.65032 5.7884L4.48664 7.07076C4.32256 7.38515 4.18623 7.71364 4.07947 8.05287L2.58175 8.36818C2.4059 8.4052 2.28003 8.56033 2.28003 8.74003V11.02C2.28003 11.1997 2.4059 11.3549 2.58175 11.3919L4.07947 11.7072C4.18623 12.0464 4.32256 12.3749 4.48664 12.6893L3.65032 13.9717C3.55216 14.1222 3.57285 14.3209 3.69992 14.4479L5.31212 16.0601C5.43918 16.1872 5.63789 16.2079 5.7884 16.1097L7.07076 15.2734C7.38515 15.4375 7.71364 15.5738 8.05287 15.6806L8.36818 17.1783C8.4052 17.3542 8.56033 17.48 8.74003 17.48H11.02C11.1997 17.48 11.3549 17.3542 11.3919 17.1783L11.7072 15.6806C12.0464 15.5738 12.3749 15.4375 12.6893 15.2734L13.9717 16.1097C14.1222 16.2079 14.3209 16.1872 14.4479 16.0601L16.0601 14.4479C16.1872 14.3209 16.2079 14.1222 16.1097 13.9717L15.2734 12.6893C15.4375 12.3749 15.5738 12.0464 15.6806 11.7072L17.1783 11.3919C17.3542 11.3549 17.48 11.1997 17.48 11.02V8.74003C17.48 8.56033 17.3542 8.4052 17.1783 8.36818L15.6806 8.05287C15.5738 7.71364 15.4375 7.38515 15.2734 7.07076L16.1097 5.7884C16.2079 5.63789 16.1872 5.43918 16.0601 5.31212L14.4479 3.69992C14.3209 3.57285 14.1222 3.55216 13.9717 3.65032L12.6893 4.48664C12.3749 4.32256 12.0464 4.18623 11.7072 4.07947L11.3919 2.58175C11.3549 2.4059 11.1997 2.28003 11.02 2.28003H8.74003C8.56033 2.28003 8.4052 2.4059 8.36818 2.58175L8.05287 4.07947C7.71364 4.18623 7.38515 4.32256 7.07076 4.48664L5.7884 3.65032C5.63789 3.55216 5.43918 3.57285 5.31212 3.69992L3.69992 5.31212ZM5.24734 6.84591L4.45531 5.63147L5.63147 4.45531L6.84591 5.24734C6.96537 5.32525 7.1184 5.3297 7.2422 5.25888C7.6302 5.03689 8.04495 4.86457 8.47779 4.74664C8.61536 4.70915 8.72037 4.59781 8.74974 4.45829L9.04833 3.04H10.7117L11.0103 4.45829C11.0396 4.59781 11.1446 4.70915 11.2822 4.74664C11.715 4.86457 12.1298 5.03689 12.5178 5.25888C12.6416 5.3297 12.7946 5.32525 12.9141 5.24734L14.1285 4.45531L15.3047 5.63147L14.5127 6.84591C14.4348 6.96537 14.4303 7.1184 14.5011 7.2422C14.7231 7.6302 14.8954 8.04495 15.0134 8.47779C15.0508 8.61536 15.1622 8.72037 15.3017 8.74974L16.72 9.04833V10.7117L15.3017 11.0103C15.1622 11.0396 15.0508 11.1446 15.0134 11.2822C14.8954 11.715 14.7231 12.1298 14.5011 12.5178C14.4303 12.6416 14.4348 12.7946 14.5127 12.9141L15.3047 14.1285L14.1285 15.3047L12.9141 14.5127C12.7946 14.4348 12.6416 14.4303 12.5178 14.5011C12.1298 14.7231 11.715 14.8954 11.2822 15.0134C11.1446 15.0508 11.0396 15.1622 11.0103 15.3017L10.7117 16.72H9.04833L8.74974 15.3017C8.72037 15.1622 8.61536 15.0508 8.47779 15.0134C8.04495 14.8954 7.6302 14.7231 7.2422 14.5011C7.1184 14.4303 6.96537 14.4348 6.84591 14.5127L5.63147 15.3047L4.45531 14.1285L5.24734 12.9141C5.32525 12.7946 5.3297 12.6416 5.25888 12.5178C5.03689 12.1298 4.86457 11.715 4.74664 11.2822C4.70915 11.1446 4.59781 11.0396 4.45829 11.0103L3.04 10.7117V9.04833L4.45829 8.74974C4.59781 8.72037 4.70915 8.61536 4.74664 8.47779C4.86457 8.04495 5.03689 7.6302 5.25888 7.2422C5.3297 7.1184 5.32525 6.96537 5.24734 6.84591Z" fill="#CBD5DE"/>
<path fill-rule="evenodd" clip-rule="evenodd" d="M6.84009 9.87997C6.84009 11.5589 8.20114 12.92 9.88009 12.92C11.559 12.92 12.9201 11.5589 12.9201 9.87997C12.9201 8.20102 11.559 6.83997 9.88009 6.83997C8.20114 6.83997 6.84009 8.20102 6.84009 9.87997ZM12.16 9.88C12.16 11.1392 11.1392 12.16 9.88 12.16C8.62079 12.16 7.6 11.1392 7.6 9.88C7.6 8.62079 8.62079 7.6 9.88 7.6C11.1392 7.6 12.16 8.62079 12.16 9.88Z" fill="#CBD5DE"/>
</svg>
