<svg width="46" height="46" viewBox="0 0 46 46" fill="none" xmlns="http://www.w3.org/2000/svg">
<mask id="mask0" style="mask-type:alpha" maskUnits="userSpaceOnUse" x="0" y="0" width="46" height="46">
<path d="M22.9318 45.8636C35.5967 45.8636 45.8636 35.5967 45.8636 22.9318C45.8636 10.2669 35.5967 0 22.9318 0C10.2669 0 0 10.2669 0 22.9318C0 35.5967 10.2669 45.8636 22.9318 45.8636Z" fill="white"/>
</mask>
<g mask="url(#mask0)">
<path d="M22.9318 45.8636C35.5967 45.8636 45.8636 35.5967 45.8636 22.9318C45.8636 10.2669 35.5967 0 22.9318 0C10.2669 0 0 10.2669 0 22.9318C0 35.5967 10.2669 45.8636 22.9318 45.8636Z" fill="#2F3CED"/>
<path d="M24.8632 21.2477C24.8632 21.0713 24.8632 20.8925 25.2172 20.7161L25.9276 19.8293C26.992 18.2333 26.638 15.9269 24.8632 14.6861C23.2672 13.4441 20.7832 13.9769 19.7188 15.5729L19.0108 16.4597C19.186 16.8149 19.0108 16.9913 18.6544 16.9913L16.1716 20.5397L16.5256 20.7173L12.8008 26.0381C11.5588 27.8129 11.7364 29.9405 13.51 31.1825C15.2836 32.4245 17.4124 31.7141 18.4756 30.1181L22.2016 24.6197L22.5556 24.7949L24.8632 21.2477Z" fill="white"/>
<path d="M32.3116 26.5696C32.3116 26.392 32.4892 26.2156 32.668 26.038L33.3784 25.1524C34.618 23.5564 34.0864 21.25 32.4904 20.008H32.3128C30.7168 18.766 28.4128 19.1212 27.1708 20.8948L26.4604 21.7816C26.638 22.1356 26.4604 22.3144 26.1064 22.3144L23.8 25.8604L23.9776 26.038C22.7356 27.8128 22.9132 29.9404 24.6856 31.1824C26.2816 32.4244 28.4116 31.714 29.6524 30.118L29.83 29.9404L30.0076 30.118L32.3116 26.5696Z" fill="white"/>
</g>
</svg>
